<?xml version="1.0" encoding="UTF-8" standalone="no"?>
<!DOCTYPE svg PUBLIC "-//W3C//DTD SVG 1.0//EN" "http://www.w3.org/TR/2001/PR-SVG-20010719/DTD/svg10.dtd">
<svg width="1280px" height="720px" viewBox="-41 -41 3643 1922" xmlns="http://www.w3.org/2000/svg" xmlns:xlink="http://www.w3.org/1999/xlink">
  <g>
    <rect style="fill: #ffffff" x="-40" y="-40" width="3640" height="40"/>
    <rect style="fill: none; fill-opacity:0; stroke-width: 2; stroke: #000000" x="-40" y="-40" width="3640" height="40"/>
  </g>
  <text font-size="28.6756" style="fill: #000000;text-anchor:middle;font-family:sans-serif;font-style:normal;font-weight:normal" x="1780" y="-14.175">
    <tspan x="1780" y="-14.175">Menu</tspan>
  </text>
  <g>
    <rect style="fill: #ffffff" x="-40" y="0" width="3640" height="80"/>
    <rect style="fill: none; fill-opacity:0; stroke-width: 2; stroke: #000000" x="-40" y="0" width="3640" height="80"/>
  </g>
  <text font-size="28.6756" style="fill: #000000;text-anchor:middle;font-family:sans-serif;font-style:normal;font-weight:normal" x="1780" y="45.825">
    <tspan x="1780" y="45.825">Toolbars Area</tspan>
  </text>
  <g>
    <rect style="fill: #ffffff" x="-40" y="80" width="300" height="840"/>
    <rect style="fill: none; fill-opacity:0; stroke-width: 2; stroke: #000000" x="-40" y="80" width="300" height="840"/>
  </g>
  <text font-size="28.6756" style="fill: #000000;text-anchor:middle;font-family:sans-serif;font-style:normal;font-weight:normal" x="110" y="487.481">
    <tspan x="110" y="487.481">Projects</tspan>
    <tspan x="110" y="525.825">&amp;</tspan>
    <tspan x="110" y="564.169">Files</tspan>
  </text>
  <g>
    <rect style="fill: #ffffff" x="260" y="80" width="260" height="840"/>
    <rect style="fill: none; fill-opacity:0; stroke-width: 2; stroke: #000000" x="260" y="80" width="260" height="840"/>
  </g>
  <text font-size="28.6756" style="fill: #000000;text-anchor:middle;font-family:sans-serif;font-style:normal;font-weight:normal" x="390" y="487.481">
    <tspan x="390" y="487.481">Selected Project</tspan>
    <tspan x="390" y="525.825">Property Pages</tspan>
    <tspan x="390" y="564.169">(foldable)</tspan>
  </text>
  <g>
    <rect style="fill: #ffffff" x="-40" y="920" width="300" height="740"/>
    <rect style="fill: none; fill-opacity:0; stroke-width: 2; stroke: #000000" x="-40" y="920" width="300" height="740"/>
  </g>
  <g>
    <rect style="fill: #ffffff" x="260" y="920" width="260" height="740"/>
    <rect style="fill: none; fill-opacity:0; stroke-width: 2; stroke: #000000" x="260" y="920" width="260" height="740"/>
  </g>
  <g>
    <rect style="fill: #ffffff" x="-40" y="1660" width="3640" height="220"/>
    <rect style="fill: none; fill-opacity:0; stroke-width: 2; stroke: #000000" x="-40" y="1660" width="3640" height="220"/>
  </g>
  <text font-size="28.6756" style="fill: #000000;text-anchor:middle;font-family:sans-serif;font-style:normal;font-weight:normal" x="1780" y="1757.48">
    <tspan x="1780" y="1757.48">UX/Content Trees</tspan>
    <tspan x="1780" y="1795.83">for</tspan>
    <tspan x="1780" y="1824.17">Projects</tspan>
  </text>
  <text font-size="28.6756" style="fill: #000000;text-anchor:middle;font-family:sans-serif;font-style:normal;font-weight:normal" x="110" y="1277.48">
    <tspan x="110" y="1277.48">UX/Content</tspan>
    <tspan x="110" y="1315.83">to</tspan>
    <tspan x="110" y="1354.17">Add to Main View</tspan>
  </text>
  <text font-size="28.6756" style="fill: #000000;text-anchor:middle;font-family:sans-serif;font-style:normal;font-weight:normal" x="390" y="1277.48">
    <tspan x="390" y="1277.48">Selected UX/Content</tspan>
    <tspan x="390" y="1315.83">Property Pages</tspan>
    <tspan x="390" y="1354.17">(foldable)</tspan>
  </text>
  <text font-size="58.3511" style="fill: #000000;text-anchor:middle;font-family:sans-serif;font-style:normal;font-weight:normal" x="1800" y="894.961">
    <tspan x="1800" y="894.961">Main View</tspan>
    <tspan x="1800" y="951.65">Content/UX</tspan>
    <tspan x="1800" y="1018.339">View/Grid</tspan>
  </text>
  <g>
    <rect style="fill: #ffffff" x="520" y="80" width="3080" height="40"/>
    <rect style="fill: none; fill-opacity:0; stroke-width: 2; stroke: #000000" x="520" y="80" width="3080" height="40"/>
  </g>
  <text font-size="28.6756" style="fill: #000000;text-anchor:middle;font-family:sans-serif;font-style:normal;font-weight:normal" x="2060" y="105.825">
    <tspan x="2060" y="105.825">View Tabs</tspan>
  </text>
  <g>
    <rect style="fill: #ffffff" x="180" y="80" width="80" height="70"/>
    <rect style="fill: none; fill-opacity:0; stroke-width: 2; stroke: #000000" x="180" y="80" width="80" height="70"/>
    <text font-size="24.8" style="fill: #000000;text-anchor:middle;font-family:sans-serif;font-style:normal;font-weight:normal" x="220" y="103.8">
      <tspan x="220" y="103.8">------</tspan>
      <tspan x="220" y="124.8">------</tspan>
      <tspan x="220" y="145.8">------</tspan>
    </text>
  </g>
  <g>
    <rect style="fill: #ffffff" x="440" y="80" width="80" height="70"/>
    <rect style="fill: none; fill-opacity:0; stroke-width: 2; stroke: #000000" x="440" y="80" width="80" height="70"/>
    <text font-size="24.8" style="fill: #000000;text-anchor:middle;font-family:sans-serif;font-style:normal;font-weight:normal" x="480" y="103.8">
      <tspan x="480" y="103.8">------</tspan>
      <tspan x="480" y="124.8">------</tspan>
      <tspan x="480" y="145.8">------</tspan>
    </text>
  </g>
  <g>
    <rect style="fill: #ffffff" x="3633" y="0" width="10" height="1922"/>
    <rect style="fill: none; fill-opacity:0; stroke-width: 2; stroke: #000000" x="3633" y="0" width="10" height="1922"/>
  </g>
</svg>
